<svg id="Layer_1" data-name="Layer 1" xmlns="http://www.w3.org/2000/svg" xmlns:xlink="http://www.w3.org/1999/xlink" viewBox="0 0 426 160"><defs><style>.cls-1{fill:none;clip-rule:evenodd;}.cls-2{clip-path:url(#clip-path);}.cls-3{fill:url(#linear-gradient);}.cls-4{clip-path:url(#clip-path-2);}.cls-5{fill:url(#linear-gradient-2);}.cls-6{clip-path:url(#clip-path-3);}.cls-7{fill:url(#linear-gradient-3);}.cls-8{clip-path:url(#clip-path-4);}.cls-9{fill:url(#linear-gradient-4);}.cls-10{fill:#1a1a18;}</style><clipPath id="clip-path"><path class="cls-1" d="M53.26,54.3v51.42a51.42,51.42,0,1,1,0-102.84V54.3Z"/></clipPath><linearGradient id="linear-gradient" x1="-2.79" y1="609.51" x2="-1.97" y2="609.51" gradientTransform="translate(-116.77 71977.44) rotate(180) scale(63.2 118)" gradientUnits="userSpaceOnUse"><stop offset="0" stop-color="#fc0"/><stop offset="1" stop-color="#ffed00"/></linearGradient><clipPath id="clip-path-2"><path class="cls-1" d="M53.26,54.3v51.42A51.4,51.4,0,0,1,8.72,80,51.4,51.4,0,0,1,53.26,54.3"/></clipPath><linearGradient id="linear-gradient-2" x1="-4.05" y1="603.88" x2="-3.29" y2="603.88" gradientTransform="translate(-39971.34 -331.36) rotate(-90) scale(104.93 66.24)" gradientUnits="userSpaceOnUse"><stop offset="0" stop-color="#fc0"/><stop offset="1" stop-color="#ef7c00"/></linearGradient><clipPath id="clip-path-3"><path class="cls-1" d="M53.26,105.72V54.3a51.42,51.42,0,0,1,0,102.84V105.72Z"/></clipPath><linearGradient id="linear-gradient-3" x1="-8.71" y1="605.17" x2="-7.71" y2="605.17" gradientTransform="translate(941.64 -63178.54) scale(103.8 104.57)" gradientUnits="userSpaceOnUse"><stop offset="0" stop-color="#3c3b3a"/><stop offset="1" stop-color="#9c9c9c"/></linearGradient><clipPath id="clip-path-4"><path class="cls-1" d="M53.26,105.72V54.3A51.4,51.4,0,0,1,97.79,80a51.4,51.4,0,0,1-44.54,25.71"/></clipPath><linearGradient id="linear-gradient-4" x1="-2.85" y1="602.86" x2="-1.91" y2="602.86" gradientTransform="translate(-29408.49 -89.55) rotate(-90) scale(67.73 48.91)" gradientUnits="userSpaceOnUse"><stop offset="0" stop-color="#1a1a18"/><stop offset="1" stop-color="#878786"/></linearGradient></defs><title>icons</title><g class="cls-2"><rect class="cls-3" x="1.84" y="2.88" width="51.42" height="102.84"/></g><g class="cls-4"><rect class="cls-5" x="8.72" y="54.3" width="44.54" height="51.42"/></g><g class="cls-6"><rect class="cls-7" x="53.26" y="54.3" width="51.42" height="102.84"/></g><g class="cls-8"><rect class="cls-9" x="53.26" y="54.3" width="44.54" height="51.42"/></g><path class="cls-10" d="M401.67,102.68a1.62,1.62,0,0,1-.73,1.46c-0.49.32-2.32,0.76-5.48,1.32a54.82,54.82,0,0,1-9.34.83q-8,0-12.14-4.41t-4.17-12.71V83.94q0-8.29,4.17-12.71t12.14-4.41a51.24,51.24,0,0,1,6.52.47V55.72a1.36,1.36,0,0,1,.4-1,1.32,1.32,0,0,1,1-.41h6.3a1.35,1.35,0,0,1,1,.41,1.33,1.33,0,0,1,.41,1v47Zm-9-4.23V74.65a48.18,48.18,0,0,0-6.52-.47,6.61,6.61,0,0,0-5.52,2.27c-1.21,1.52-1.8,4-1.8,7.48v5.23c0,3.47.59,6,1.8,7.48s3,2.27,5.52,2.27A35.81,35.81,0,0,0,392.64,98.45Z"/><path class="cls-10" d="M366.2,73.08a1.36,1.36,0,0,1-1.36,1.36,19.78,19.78,0,0,0-9.42,2.47v27.4a1.45,1.45,0,0,1-.4,1,1.29,1.29,0,0,1-1,.43h-6.26a1.33,1.33,0,0,1-1-.43,1.41,1.41,0,0,1-.41-1V68.65a1.3,1.3,0,0,1,.4-1,1.33,1.33,0,0,1,1-.4h5.92a1.33,1.33,0,0,1,1,.4,1.3,1.3,0,0,1,.4,1v1.43a15.67,15.67,0,0,1,9.76-3.26,1.36,1.36,0,0,1,1.36,1.36v4.9Z"/><path class="cls-10" d="M338.37,104.38a1.36,1.36,0,0,1-1.36,1.36h-5.79a1.38,1.38,0,0,1-1.37-1.36v-1.1a18.45,18.45,0,0,1-9.62,3c-3.8,0-6.72-1-8.74-2.86s-3-4.75-3-8.52V94.62q0-6,4-8.87t12.7-2.92h4.28v-3c0-2.14-.47-3.59-1.41-4.36a7.21,7.21,0,0,0-4.58-1.17c-2.07,0-4,.06-5.92.17l-5.19.36h-0.34a1.06,1.06,0,0,1-1.23-1.16V69.32a1.36,1.36,0,0,1,.51-1.11c0.35-.28,1.82-0.58,4.43-0.9a61.54,61.54,0,0,1,7.74-.49q15,0,15,13v24.54Zm-9-7.16V88.84H325.1c-2.65,0-4.57.39-5.79,1.16s-1.81,2.32-1.81,4.63v0.27a4.22,4.22,0,0,0,1,3.27c0.69,0.64,2,1,3.88,1A14.65,14.65,0,0,0,329.38,97.22Z"/><path class="cls-10" d="M303.23,102.68a1.62,1.62,0,0,1-.73,1.46c-0.49.32-2.32,0.76-5.48,1.32a54.82,54.82,0,0,1-9.34.83q-8,0-12.14-4.41t-4.17-12.71V83.94q0-8.29,4.17-12.71t12.14-4.41a51.24,51.24,0,0,1,6.52.47V55.71a1.36,1.36,0,0,1,.4-1,1.32,1.32,0,0,1,1-.41h6.3a1.35,1.35,0,0,1,1,.41,1.33,1.33,0,0,1,.41,1v47Zm-9-4.23V74.65a48.18,48.18,0,0,0-6.52-.47,6.61,6.61,0,0,0-5.52,2.27c-1.21,1.52-1.8,4-1.8,7.48v5.23c0,3.47.59,6,1.8,7.48s3,2.27,5.52,2.27A35.81,35.81,0,0,0,294.2,98.45Z"/><path class="cls-10" d="M264.69,104.32a1.45,1.45,0,0,1-.4,1,1.28,1.28,0,0,1-1,.43h-6.26a1.29,1.29,0,0,1-1-.43,1.45,1.45,0,0,1-.4-1V82.07c0-3.1-.33-5.16-1-6.15s-2.26-1.48-4.8-1.48c-2,0-4.61.82-7.72,2.47v27.4a1.45,1.45,0,0,1-.4,1,1.3,1.3,0,0,1-1,.43h-6.26a1.33,1.33,0,0,1-1-.43,1.41,1.41,0,0,1-.41-1V68.65a1.3,1.3,0,0,1,.4-1,1.33,1.33,0,0,1,1-.4h5.92a1.33,1.33,0,0,1,1,.4,1.3,1.3,0,0,1,.4,1v1.43a22.11,22.11,0,0,1,5.07-2.49,19.65,19.65,0,0,1,6-.77c4,0,7,1.14,8.89,3.41s2.9,6.23,2.9,11.84v22.24Z"/><path class="cls-10" d="M225.14,104.38a1.36,1.36,0,0,1-1.36,1.36H218a1.38,1.38,0,0,1-1.37-1.36v-1.1a18.45,18.45,0,0,1-9.62,3c-3.8,0-6.72-1-8.74-2.86s-3-4.75-3-8.52V94.62q0-6,4-8.87t12.7-2.92h4.28v-3c0-2.14-.47-3.59-1.41-4.36a7.21,7.21,0,0,0-4.58-1.17c-2.07,0-4,.06-5.92.17l-5.19.36h-0.34a1.06,1.06,0,0,1-1.23-1.16V69.32a1.35,1.35,0,0,1,.51-1.11c0.35-.28,1.82-0.58,4.43-0.9a61.53,61.53,0,0,1,7.74-.49q15,0,15,13v24.54Zm-9-7.16V88.84h-4.28c-2.65,0-4.57.39-5.79,1.16s-1.81,2.32-1.81,4.63v0.27a4.22,4.22,0,0,0,1,3.27c0.69,0.64,2,1,3.88,1A14.64,14.64,0,0,0,216.15,97.22Z"/><path class="cls-10" d="M191.33,104.58a1.18,1.18,0,0,1-.32.85,5,5,0,0,1-2.34.6,27.2,27.2,0,0,1-3.26.25c-4.59,0-7.56-.83-8.88-2.48s-2-4.44-2-8.34V74q-6.43-1-6.73-1a1.49,1.49,0,0,1-.67-0.42,1.16,1.16,0,0,1-.36-0.88V68.65a1.36,1.36,0,0,1,1.36-1.36h6.4V61.69a1.16,1.16,0,0,1,.4-0.92,6.38,6.38,0,0,1,2.36-.68c1.31-.22,3-0.51,5-0.86h0.27a1,1,0,0,1,1.1,1v7h6.13a1.36,1.36,0,0,1,1.36,1.36v4A1.36,1.36,0,0,1,189.77,74h-6.13V95.46a10.74,10.74,0,0,0,.27,3c0.19,0.51,1,.77,2.39.77h3.59c1,0,1.43.34,1.43,1v4.28Z"/><path class="cls-10" d="M160.52,63.33q-7.49-.66-13.42-0.67c-4.77,0-7.15,1.61-7.15,4.83a4.18,4.18,0,0,0,1.38,3.23,17,17,0,0,0,3.22,2.3l9.18,5.13A21.16,21.16,0,0,1,160.9,84a13.44,13.44,0,0,1,2.27,8,13.92,13.92,0,0,1-2,7.51,13,13,0,0,1-6.06,5,24.84,24.84,0,0,1-9.81,1.73,60.69,60.69,0,0,1-8.63-.57c-2.59-.38-4-0.72-4.32-1a1.37,1.37,0,0,1-.43-1V98.79a1.27,1.27,0,0,1,.37-0.92,1.3,1.3,0,0,1,.92-0.39h0.12c1.3,0.16,3.3.32,6,.47s4.74,0.24,6.09.24q4.09,0,6-1.4c1.27-.93,1.9-2.52,1.9-4.76a4.67,4.67,0,0,0-1.36-3.5,17.6,17.6,0,0,0-3.13-2.4L138.51,80a18.39,18.39,0,0,1-6.11-5.35,12.5,12.5,0,0,1-1.94-7.13q0-13,17-13a74.73,74.73,0,0,1,8.3.52,23,23,0,0,1,5.35.91,1.24,1.24,0,0,1,.66,1.1v5a1.06,1.06,0,0,1-1.16,1.24h-0.14Z"/><path class="cls-10" d="M417.69,59V58.94a1.52,1.52,0,0,0-.61-1.38,3.54,3.54,0,0,0-1.89-.39c-0.64,0-1.11,0-1.41,0v3.56h1.41a3.42,3.42,0,0,0,2-.41,1.61,1.61,0,0,0,.54-1.37m2.13-2.52a6.16,6.16,0,1,0,1.81,4.36A6.14,6.14,0,0,0,419.82,56.47Zm-4.36-2.28a6.64,6.64,0,1,1-4.69,1.94A6.62,6.62,0,0,1,415.46,54.19Zm0.75,7,2.21,3.41a0.29,0.29,0,0,1,.06.15,0.15,0.15,0,0,1-.17.17h-0.14a0.19,0.19,0,0,1-.17-0.1l-2.33-3.57h-1.88v3.47a0.22,0.22,0,0,1-.05.15,0.17,0.17,0,0,1-.13.06h-0.11a0.17,0.17,0,0,1-.13-0.06,0.21,0.21,0,0,1-.05-0.15V57a0.2,0.2,0,0,1,.14-0.19,11.62,11.62,0,0,1,1.76-.06,3.8,3.8,0,0,1,2.29.53,2,2,0,0,1,.69,1.7V59a2.13,2.13,0,0,1-.47,1.49A2.53,2.53,0,0,1,416.21,61.17Z"/><path class="cls-10" d="M309.56,139.94v-0.3c0-3.25-.61-5.66-1.82-7.2a7.74,7.74,0,0,0-11.18.15c-1.28,1.65-1.91,4-1.91,7.1v0.26h14.91ZM288.4,153.19a0.76,0.76,0,0,1-.26.67,11,11,0,0,1-2.54.39c-1.51.15-2.8,0.22-3.87,0.22a8.38,8.38,0,0,1-7-3.09q-2.43-3.08-2.43-8.48v-3.22c0-3.61.81-6.43,2.42-8.42a8.47,8.47,0,0,1,7-3c0.82,0,2.08.07,3.79,0.21s2.61,0.3,2.72.48a1.13,1.13,0,0,1,.16.6v0.35a0.63,0.63,0,0,1-.76.65h-0.24a47.32,47.32,0,0,0-5.67-.42q-7.34,0-7.33,9.56v3.22q0,9.7,7.33,9.7c0.79,0,1.68,0,2.65-.12l3-.3h0.24a0.64,0.64,0,0,1,.76.68v0.33Zm-21.48.1a0.92,0.92,0,0,1-.9.91h-0.35a0.78,0.78,0,0,1-.6-0.27,0.93,0.93,0,0,1-.25-0.64V137.4q0-7.27-6.44-7.27a17.6,17.6,0,0,0-7.53,2v21.19a0.92,0.92,0,0,1-.27.63,0.84,0.84,0,0,1-.62.28h-0.3a0.88,0.88,0,0,1-.63-0.28,0.89,0.89,0,0,1-.28-0.63V129.45a0.81,0.81,0,0,1,.86-1H250a0.8,0.8,0,0,1,.84,1v0.77a17.82,17.82,0,0,1,7.67-2,8.09,8.09,0,0,1,6.18,2.35c1.48,1.57,2.22,3.83,2.22,6.8v15.89Zm-26.63-3.11v-9.53h-3.68c-3.52,0-6,.4-7.46,1.19s-2.19,2.23-2.19,4.32v0.63q0,5.83,5.19,5.82A17.23,17.23,0,0,0,240.28,150.18Zm2.1,3.06a1,1,0,0,1-.28.68,0.94,0.94,0,0,1-.67.28h-0.24a0.94,0.94,0,0,1-.67-0.28,1,1,0,0,1-.28-0.68V152a16.87,16.87,0,0,1-8.09,2.43,7.23,7.23,0,0,1-5.37-2,7.81,7.81,0,0,1-1.94-5.73v-0.63c0-2.63.94-4.51,2.83-5.66s4.87-1.71,8.94-1.71h3.68v-1.72c0-2.54-.44-4.33-1.3-5.38s-2.44-1.57-4.7-1.57c-1.17,0-2.33,0-3.46.14l-3.3.28h-0.19a0.72,0.72,0,0,1-.9-0.7v-0.3a0.67,0.67,0,0,1,.38-0.65,12.22,12.22,0,0,1,2.56-.41,47.84,47.84,0,0,1,4.91-.22q4.12,0,6.11,2.06t2,6.76v16.17ZM221.3,129.36c0,0.51-.43.77-1.28,0.77a12.5,12.5,0,0,0-6.63,2.2v21a0.92,0.92,0,0,1-.27.63,0.84,0.84,0,0,1-.62.28h-0.3a0.88,0.88,0,0,1-.63-0.28,0.9,0.9,0,0,1-.28-0.63V129.45a0.81,0.81,0,0,1,.86-1h0.4a0.8,0.8,0,0,1,.84,1v1a12,12,0,0,1,6.63-2.19c0.85,0,1.28.24,1.28,0.73v0.37Zm-16.66,23.88a0.8,0.8,0,0,1-.86,1h-0.4a0.8,0.8,0,0,1-.84-1v-0.77a17.82,17.82,0,0,1-7.67,2,8.11,8.11,0,0,1-6.17-2.35q-2.23-2.35-2.23-6.79V129.41a0.86,0.86,0,0,1,.27-0.65,0.87,0.87,0,0,1,.63-0.27h0.35a0.78,0.78,0,0,1,.6.28,1,1,0,0,1,.25.64V145.3q0,7.26,6.34,7.27H195a18.48,18.48,0,0,0,7.53-2V129.41a0.92,0.92,0,0,1,.27-0.64,0.84,0.84,0,0,1,.62-0.28h0.3a0.89,0.89,0,0,1,.63.28,0.9,0.9,0,0,1,.28.64v23.83Zm-25.73-22.6a66.25,66.25,0,0,0-6.63-.52c-2,0-3.41.33-4.19,1a3.73,3.73,0,0,0-1.18,3,3.54,3.54,0,0,0,.87,2.31,14.08,14.08,0,0,0,3.73,2.67c3.11,1.72,5.14,2.89,6.08,3.51a8.66,8.66,0,0,1,2.29,2.19,5.16,5.16,0,0,1,.88,3q0,6.64-8.26,6.64a36.86,36.86,0,0,1-4.48-.3,17.64,17.64,0,0,1-3-.51,0.68,0.68,0,0,1-.52-0.61v-0.53a0.63,0.63,0,0,1,.77-0.65h0.28a46.54,46.54,0,0,0,7,.75q3.21,0,4.63-1.17a4.36,4.36,0,0,0,1.42-3.6,3.48,3.48,0,0,0-1-2.52,19,19,0,0,0-4-2.71q-4.44-2.43-5.76-3.29a7.74,7.74,0,0,1-2.19-2.13,5.9,5.9,0,0,1,1.06-7.42,8.48,8.48,0,0,1,5.36-1.51c1.46,0,3,.07,4.75.21a7.93,7.93,0,0,1,2.81.48,0.8,0.8,0,0,1,.25.55v0.4a0.71,0.71,0,0,1-.86.75h-0.14Zm-19.48,22.65a0.92,0.92,0,0,1-.9.91h-0.35a0.78,0.78,0,0,1-.6-0.27,0.93,0.93,0,0,1-.25-0.64V137.4q0-7.27-6.44-7.27a17.6,17.6,0,0,0-7.54,2v21.19a0.92,0.92,0,0,1-.27.63,0.84,0.84,0,0,1-.62.28h-0.3a0.88,0.88,0,0,1-.63-0.28,0.9,0.9,0,0,1-.28-0.63V129.45a0.81,0.81,0,0,1,.86-1h0.4a0.8,0.8,0,0,1,.84,1v0.77a17.82,17.82,0,0,1,7.67-2,8.09,8.09,0,0,1,6.18,2.35c1.49,1.57,2.22,3.83,2.22,6.8v15.89Zm-25.88,0a0.9,0.9,0,0,1-.28.63,0.87,0.87,0,0,1-.63.28h-0.28a0.87,0.87,0,0,1-.64-0.28,0.92,0.92,0,0,1-.27-0.63V129.41a0.92,0.92,0,0,1,.27-0.64,0.87,0.87,0,0,1,.64-0.28h0.28a0.88,0.88,0,0,1,.63.28,0.9,0.9,0,0,1,.28.64v23.88Zm0-30.43a0.81,0.81,0,0,1-.27.63,0.87,0.87,0,0,1-.64.26h-0.28a0.88,0.88,0,0,1-.64-0.26,0.84,0.84,0,0,1-.27-0.63v-3.55a0.9,0.9,0,0,1,.27-0.63,0.84,0.84,0,0,1,.64-0.28h0.28a0.84,0.84,0,0,1,.63.28,0.88,0.88,0,0,1,.28.63v3.55Zm178.1,18.09a0.91,0.91,0,0,1-.91.91H294.65v1q0,4.91,2,7.33t6.62,2.42a26.76,26.76,0,0,0,4.26-.33l3.1-.52a0.61,0.61,0,0,1,.72.65v0.35a0.75,0.75,0,0,1-.37.73,14.26,14.26,0,0,1-3,.6,32.67,32.67,0,0,1-4.73.38q-10.71,0-10.7-11.61v-3.17a12.94,12.94,0,0,1,2.51-8.26,9.71,9.71,0,0,1,14.16-.21q2.43,3,2.43,8.42v1.31Z"/></svg>